<?xml version="1.0" encoding="UTF-8" standalone="no"?>
<svg
   xmlns:dc="http://purl.org/dc/elements/1.1/"
   xmlns:cc="http://creativecommons.org/ns#"
   xmlns:rdf="http://www.w3.org/1999/02/22-rdf-syntax-ns#"
   xmlns:svg="http://www.w3.org/2000/svg"
   xmlns="http://www.w3.org/2000/svg"
   xmlns:sodipodi="http://sodipodi.sourceforge.net/DTD/sodipodi-0.dtd"
   xmlns:inkscape="http://www.inkscape.org/namespaces/inkscape"
   width="210mm"
   height="297mm"
   viewBox="0 0 210 297"
   version="1.1"
   id="svg8"
   inkscape:version="1.0.2-2 (e86c870879, 2021-01-15)"
   sodipodi:docname="vsremote_icon.svg">
  <defs
     id="defs2">
    <style
       id="style10">.a{fill:#fff;}.a,.h{fill-rule:evenodd;}.b{mask:url(#a);}.c{fill:#52218a;}.d{fill:#6c33af;}.e{fill:#854cc7;}.f{fill:#b179f1;}.g{opacity:0.25;}.h{fill:url(#b);}</style>
    <mask
       id="a"
       x="0"
       y="0"
       width="96"
       height="95.51"
       maskUnits="userSpaceOnUse">
      <g
         transform="translate(0 -0.25)"
         id="g14">
        <path
           class="a"
           d="M68.89,95.6a6,6,0,0,0,3.93-.44L92.6,85.65A6,6,0,0,0,96,80.24V15.76a6,6,0,0,0-3.4-5.41L72.82.84A6,6,0,0,0,68.34.55,6,6,0,0,0,66,2L34.12,37.26,15.5,22l-1.63-1.4a4,4,0,0,0-3.61-.83,2.55,2.55,0,0,0-.53.18L2.46,23A4,4,0,0,0,0,26.37c0,.1,0,.2,0,.3V69.33c0,.1,0,.2,0,.3A4,4,0,0,0,2.46,73l7.27,3a2.55,2.55,0,0,0,.53.18,4,4,0,0,0,3.61-.83L15.5,74,34.12,58.74,66,94A6,6,0,0,0,68.89,95.6ZM72,27.68,47.21,48,72,68.32ZM12,34.27,24.41,48,12,61.73Z"
           id="path12" />
      </g>
    </mask>
    <linearGradient
       id="b"
       x1="48"
       y1="97.75"
       x2="48"
       y2="2.25"
       gradientTransform="matrix(0,-0.26458333,-0.26458333,0,113.38264,126.08434)"
       gradientUnits="userSpaceOnUse">
      <stop
         offset="0"
         stop-color="#fff"
         id="stop17" />
      <stop
         offset="1"
         stop-color="#fff"
         stop-opacity="0"
         id="stop19" />
    </linearGradient>
    <filter
       id="filter0_d"
       x="-8.39411"
       y="15.8291"
       width="116.727"
       height="92.2456"
       filterUnits="userSpaceOnUse"
       color-interpolation-filters="sRGB">
      <feFlood
         flood-opacity="0"
         result="BackgroundImageFix"
         id="feFlood79" />
      <feColorMatrix
         in="SourceAlpha"
         type="matrix"
         values="0 0 0 0 0 0 0 0 0 0 0 0 0 0 0 0 0 0 127 0"
         id="feColorMatrix81" />
      <feOffset
         id="feOffset83" />
      <feGaussianBlur
         stdDeviation="4.16667"
         id="feGaussianBlur85" />
      <feColorMatrix
         type="matrix"
         values="0 0 0 0 0 0 0 0 0 0 0 0 0 0 0 0 0 0 0.25 0"
         id="feColorMatrix87" />
      <feBlend
         mode="overlay"
         in2="BackgroundImageFix"
         result="effect1_dropShadow"
         id="feBlend89" />
      <feBlend
         mode="normal"
         in="SourceGraphic"
         in2="effect1_dropShadow"
         result="shape"
         id="feBlend91" />
    </filter>
    <filter
       id="filter1_d"
       x="60.4167"
       y="-8.07558"
       width="47.9167"
       height="116.151"
       filterUnits="userSpaceOnUse"
       color-interpolation-filters="sRGB">
      <feFlood
         flood-opacity="0"
         result="BackgroundImageFix"
         id="feFlood94" />
      <feColorMatrix
         in="SourceAlpha"
         type="matrix"
         values="0 0 0 0 0 0 0 0 0 0 0 0 0 0 0 0 0 0 127 0"
         id="feColorMatrix96" />
      <feOffset
         id="feOffset98" />
      <feGaussianBlur
         stdDeviation="4.16667"
         id="feGaussianBlur100" />
      <feColorMatrix
         type="matrix"
         values="0 0 0 0 0 0 0 0 0 0 0 0 0 0 0 0 0 0 0.25 0"
         id="feColorMatrix102" />
      <feBlend
         mode="overlay"
         in2="BackgroundImageFix"
         result="effect1_dropShadow"
         id="feBlend104" />
      <feBlend
         mode="normal"
         in="SourceGraphic"
         in2="effect1_dropShadow"
         result="shape"
         id="feBlend106" />
    </filter>
    <linearGradient
       id="paint0_linear"
       x1="49.9392"
       y1="0.257812"
       x2="49.9392"
       y2="99.7423"
       gradientUnits="userSpaceOnUse">
      <stop
         stop-color="white"
         id="stop109" />
      <stop
         offset="1"
         stop-color="white"
         stop-opacity="0"
         id="stop111" />
    </linearGradient>
  </defs>
  <sodipodi:namedview
     id="base"
     pagecolor="#ffffff"
     bordercolor="#666666"
     borderopacity="1.0"
     inkscape:pageopacity="0.0"
     inkscape:pageshadow="2"
     inkscape:zoom="7.9195959"
     inkscape:cx="403.07567"
     inkscape:cy="429.14477"
     inkscape:document-units="mm"
     inkscape:current-layer="layer1"
     inkscape:document-rotation="0"
     showgrid="false"
     inkscape:snap-text-baseline="false"
     showguides="true"
     inkscape:guide-bbox="true"
     inkscape:window-width="3840"
     inkscape:window-height="2054"
     inkscape:window-x="-11"
     inkscape:window-y="-11"
     inkscape:window-maximized="1">
    <sodipodi:guide
       position="98.439172,193.26916"
       orientation="0,-1"
       id="guide199" />
    <sodipodi:guide
       position="99.124254,172.43323"
       orientation="0,-1"
       id="guide201" />
    <sodipodi:guide
       position="83.55636,187.12705"
       orientation="1,0"
       id="guide203" />
    <sodipodi:guide
       position="107.27437,185.49703"
       orientation="1,0"
       id="guide205" />
    <sodipodi:guide
       position="92.556918,169.57478"
       orientation="0,-1"
       id="guide209" />
  </sodipodi:namedview>
  <metadata
     id="metadata5">
    <rdf:RDF>
      <cc:Work
         rdf:about="">
        <dc:format>image/svg+xml</dc:format>
        <dc:type
           rdf:resource="http://purl.org/dc/dcmitype/StillImage" />
        <dc:title></dc:title>
      </cc:Work>
    </rdf:RDF>
  </metadata>
  <g
     inkscape:label="Layer 1"
     inkscape:groupmode="layer"
     id="layer1">
    <path
       class="d"
       d="m 106.40055,122.52787 c -0.16362,0.36513 -0.54602,0.60372 -0.97102,0.60586 h -0.0873 c 0.55177,-0.006 0.81383,-0.635 0.4101,-0.98514 L 92.409285,109.05562 c -0.473665,-0.44312 -0.596566,-1.11572 -0.306917,-1.67969 l 2.518833,-2.78798 c 0.264507,-0.51207 0.820997,-0.83738 1.431396,-0.83738 h 0.06085 c -0.845563,6.8e-4 -1.310678,0.91535 -0.775229,1.52453 l 11.326922,12.93717 0.37041,0.40145 c 0.25931,0.28248 0.32581,0.67676 0.17198,1.01963 z"
       id="path28"
       style="stroke-width:0.255272"
       sodipodi:nodetypes="cccccccscccccc" />
    <path
       d="m 84.765269,104.45143 -1.162543,4.05174 c -0.134564,0.469 -0.0778,1.02947 0.141535,1.39752 l 7.20679,13.26388 c 0.19383,0.35675 0.528557,0.35634 0.722087,-7.4e-4 l 0.586946,-1.08344 c 0.158223,-0.29206 0.16987,-4.87046 0.02772,-5.18492 l -7.22094,-11.8342 c -0.242253,-0.53586 -0.01448,-1.30553 0.386333,-1.30553 h -0.02803 c -0.281356,0 -0.537834,0.27046 -0.659893,0.69584 z"
       fill="#0065a9"
       id="path63"
       style="stroke-width:0.1518"
       sodipodi:nodetypes="cccccscccscc" />
    <g
       filter="url(#filter0_d)"
       id="g67"
       style="fill:none"
       transform="matrix(0,-0.20901153,0.13184497,0,85.944131,123.41414)">
      <path
         d="m 90.749697,90.375582 -19.385228,8.817519 c -2.243867,1.020789 -4.925407,0.590075 -6.686349,-1.073493 L 1.2181398,43.458577 c -1.70691338,-1.470253 -1.70495082,-4.009022 0.00423,-5.476875 L 6.4059804,33.52988 C 7.803303,32.329822 29.708329,32.241475 31.212802,33.319678 l 56.619867,54.768399 c 2.563843,1.837416 6.246232,0.109944 6.246232,-2.930108 v 0.212601 c 0,2.13392 -1.294011,4.079237 -3.329204,5.005012 z"
         fill="#007acc"
         id="path65"
         sodipodi:nodetypes="ccccsscccsc"
         style="stroke-width:0.914443" />
    </g>
    <path
       class="f"
       d="m 105.93278,107.37593 c 0.28964,0.56397 0.16674,1.23657 -0.30692,1.67969 0.58272,-0.54637 0.16827,-1.47598 -0.65881,-1.47773 H 93.073389 c -0.829638,-0.003 -1.24863,0.92968 -0.664104,1.47773 -0.473665,-0.44312 -0.596566,-1.11572 -0.306917,-1.67969 l 2.516187,-2.78798 c 0.264507,-0.51207 0.820997,-0.83762 1.431396,-0.83738 h 5.935239 c 0.6104,-2.4e-4 1.16689,0.32531 1.43139,0.83738 z"
       id="path32"
       style="stroke-width:0.255272"
       sodipodi:nodetypes="ccccccccccc" />
    <path
       class="c"
       d="m 107.03555,118.61372 c 0.25931,0.28248 0.32581,0.67676 0.17198,1.01963 l -0.80698,2.89452 c -0.16362,0.36513 -0.54602,0.60372 -0.97102,0.60586 H 94.142408 c -0.425001,-0.002 -0.807397,-0.24073 -0.97102,-0.60586 l -0.79375,-2.89452 c -0.153831,-0.34287 -0.08733,-0.73714 0.171979,-1.01963 l 0.357187,-0.40145 c -0.278483,0.36059 -8.39e-4,0.86312 0.47625,0.86201 h 12.805836 c 0.47709,9.3e-4 0.75473,-0.50142 0.47625,-0.86201 z"
       id="path26-2"
       style="fill:#52218a;stroke-width:0.255272"
       sodipodi:nodetypes="ccccccccccccc" />
    <path
       class="c"
       d="m 107.03555,118.61372 c 0.25931,0.28248 0.32581,0.67676 0.17198,1.01963 l -0.80698,2.89452 c -0.16362,0.36513 -0.54602,0.60372 -0.97102,0.60586 H 94.142408 c -0.425001,-0.002 -0.807397,-0.24073 -0.97102,-0.60586 l -0.79375,-2.89452 c -0.153831,-0.34287 -0.08733,-0.73714 0.171979,-1.01963 l 0.357187,-0.40145 c -0.278483,0.36059 -8.39e-4,0.86312 0.47625,0.86201 h 12.805836 c 0.47709,9.3e-4 0.75473,-0.50142 0.47625,-0.86201 z"
       id="path26"
       style="stroke-width:0.255272"
       sodipodi:nodetypes="ccccccccccccc" />
    <text
       xml:space="preserve"
       style="font-style:normal;font-weight:normal;font-size:10.5833px;line-height:1.25;font-family:sans-serif;fill:#000000;fill-opacity:1;stroke:none;stroke-width:0.264583"
       x="83.131134"
       y="127.23624"
       id="text197"><tspan
         sodipodi:role="line"
         id="tspan195"
         x="83.131134"
         y="127.23624"
         style="font-style:normal;font-variant:normal;font-weight:normal;font-stretch:normal;font-size:7.40833px;font-family:Consolas;-inkscape-font-specification:'Consolas, Normal';font-variant-ligatures:normal;font-variant-caps:normal;font-variant-numeric:normal;font-variant-east-asian:normal;stroke-width:0.264583">remote</tspan></text>
  </g>
</svg>
